<svg width="1551" height="1080" viewBox="0 0 1551 1080" fill="none" xmlns="http://www.w3.org/2000/svg">
<g opacity="0.8" clip-path="url(#clip0_2616_325)">
<path d="M1369.34 808.264C1369.34 809.784 1368.19 810.923 1366.67 810.923C1365.14 810.923 1364 809.784 1364 808.264C1364 806.745 1365.14 805.605 1366.67 805.605C1368.19 805.605 1369.34 806.872 1369.34 808.264Z" fill="white"/>
<path d="M1392.08 808.264C1392.08 809.784 1390.93 810.923 1389.41 810.923C1387.88 810.923 1386.74 809.784 1386.74 808.264C1386.74 806.745 1387.88 805.605 1389.41 805.605C1390.8 805.605 1392.08 806.872 1392.08 808.264Z" fill="white"/>
<path d="M1414.69 808.264C1414.69 809.784 1413.54 810.923 1412.02 810.923C1410.5 810.923 1409.35 809.784 1409.35 808.264C1409.35 806.745 1410.5 805.605 1412.02 805.605C1413.54 805.605 1414.69 806.872 1414.69 808.264Z" fill="white"/>
<path d="M1437.43 808.264C1437.43 809.784 1436.28 810.923 1434.76 810.923C1433.24 810.923 1432.09 809.784 1432.09 808.264C1432.09 806.745 1433.24 805.605 1434.76 805.605C1436.28 805.605 1437.43 806.872 1437.43 808.264Z" fill="white"/>
<path d="M1460.17 808.264C1460.17 809.784 1459.02 810.923 1457.5 810.923C1455.98 810.923 1454.83 809.784 1454.83 808.264C1454.83 806.745 1455.98 805.605 1457.5 805.605C1458.9 805.605 1460.17 806.872 1460.17 808.264Z" fill="white"/>
<path d="M1482.91 808.264C1482.91 809.784 1481.76 810.923 1480.24 810.923C1478.72 810.923 1477.57 809.784 1477.57 808.264C1477.57 806.745 1478.72 805.605 1480.24 805.605C1481.76 805.605 1482.91 806.872 1482.91 808.264Z" fill="white"/>
<path d="M1505.52 808.264C1505.52 809.784 1504.38 810.923 1502.85 810.923C1501.33 810.923 1500.18 809.784 1500.18 808.264C1500.18 806.745 1501.33 805.605 1502.85 805.605C1504.38 805.605 1505.52 806.872 1505.52 808.264Z" fill="white"/>
<path d="M1528.26 808.264C1528.26 809.784 1527.12 810.923 1525.59 810.923C1524.07 810.923 1522.92 809.784 1522.92 808.264C1522.92 806.745 1524.07 805.605 1525.59 805.605C1527.12 805.605 1528.26 806.872 1528.26 808.264Z" fill="white"/>
<path d="M1551 808.264C1551 809.784 1549.86 810.923 1548.33 810.923C1546.81 810.923 1545.66 809.784 1545.66 808.264C1545.66 806.745 1546.81 805.605 1548.33 805.605C1549.73 805.605 1551 806.872 1551 808.264Z" fill="white"/>
<path d="M1369.34 827.131C1369.34 828.65 1368.19 829.79 1366.67 829.79C1365.14 829.79 1364 828.65 1364 827.131C1364 825.611 1365.14 824.472 1366.67 824.472C1368.19 824.472 1369.34 825.611 1369.34 827.131Z" fill="white"/>
<path d="M1392.08 827.131C1392.08 828.65 1390.93 829.79 1389.41 829.79C1387.88 829.79 1386.74 828.65 1386.74 827.131C1386.74 825.611 1387.88 824.472 1389.41 824.472C1390.8 824.472 1392.08 825.611 1392.08 827.131Z" fill="white"/>
<path d="M1414.69 827.131C1414.69 828.65 1413.54 829.79 1412.02 829.79C1410.5 829.79 1409.35 828.65 1409.35 827.131C1409.35 825.611 1410.5 824.472 1412.02 824.472C1413.54 824.472 1414.69 825.611 1414.69 827.131Z" fill="white"/>
<path d="M1437.43 827.131C1437.43 828.65 1436.28 829.79 1434.76 829.79C1433.24 829.79 1432.09 828.65 1432.09 827.131C1432.09 825.611 1433.24 824.472 1434.76 824.472C1436.28 824.472 1437.43 825.611 1437.43 827.131Z" fill="white"/>
<path d="M1460.17 827.131C1460.17 828.65 1459.02 829.79 1457.5 829.79C1455.98 829.79 1454.83 828.65 1454.83 827.131C1454.83 825.611 1455.98 824.472 1457.5 824.472C1458.9 824.472 1460.17 825.611 1460.17 827.131Z" fill="white"/>
<path d="M1482.91 827.131C1482.91 828.65 1481.76 829.79 1480.24 829.79C1478.72 829.79 1477.57 828.65 1477.57 827.131C1477.57 825.611 1478.72 824.472 1480.24 824.472C1481.76 824.472 1482.91 825.611 1482.91 827.131Z" fill="white"/>
<path d="M1505.52 827.131C1505.52 828.65 1504.38 829.79 1502.85 829.79C1501.33 829.79 1500.18 828.65 1500.18 827.131C1500.18 825.611 1501.33 824.472 1502.85 824.472C1504.38 824.472 1505.52 825.611 1505.52 827.131Z" fill="white"/>
<path d="M1528.26 827.131C1528.26 828.65 1527.12 829.79 1525.59 829.79C1524.07 829.79 1522.92 828.65 1522.92 827.131C1522.92 825.611 1524.07 824.472 1525.59 824.472C1527.12 824.472 1528.26 825.611 1528.26 827.131Z" fill="white"/>
<path d="M1551 827.131C1551 828.65 1549.86 829.79 1548.33 829.79C1546.81 829.79 1545.66 828.65 1545.66 827.131C1545.66 825.611 1546.81 824.472 1548.33 824.472C1549.73 824.472 1551 825.611 1551 827.131Z" fill="white"/>
<path d="M1369.34 770.659C1369.34 772.178 1368.19 773.318 1366.67 773.318C1365.14 773.318 1364 772.178 1364 770.659C1364 769.14 1365.14 768 1366.67 768C1368.19 768 1369.34 769.14 1369.34 770.659Z" fill="white"/>
<path d="M1392.08 770.659C1392.08 772.178 1390.93 773.318 1389.41 773.318C1387.88 773.318 1386.74 772.178 1386.74 770.659C1386.74 769.14 1387.88 768 1389.41 768C1390.8 768 1392.08 769.14 1392.08 770.659Z" fill="white"/>
<path d="M1414.69 770.659C1414.69 772.178 1413.54 773.318 1412.02 773.318C1410.5 773.318 1409.35 772.178 1409.35 770.659C1409.35 769.14 1410.62 768 1412.02 768C1413.54 768 1414.69 769.14 1414.69 770.659Z" fill="white"/>
<path d="M1437.43 770.659C1437.43 772.178 1436.28 773.318 1434.76 773.318C1433.24 773.318 1432.09 772.178 1432.09 770.659C1432.09 769.14 1433.36 768 1434.76 768C1436.16 768 1437.43 769.14 1437.43 770.659Z" fill="white"/>
<path d="M1460.17 770.659C1460.17 772.178 1459.02 773.318 1457.5 773.318C1455.98 773.318 1454.83 772.178 1454.83 770.659C1454.83 769.14 1455.98 768 1457.5 768C1458.9 768 1460.17 769.14 1460.17 770.659Z" fill="white"/>
<path d="M1482.91 770.659C1482.91 772.178 1481.76 773.318 1480.24 773.318C1478.72 773.318 1477.57 772.178 1477.57 770.659C1477.57 769.14 1478.72 768 1480.24 768C1481.76 768 1482.91 769.14 1482.91 770.659Z" fill="white"/>
<path d="M1505.52 770.659C1505.52 772.178 1504.38 773.318 1502.85 773.318C1501.33 773.318 1500.18 772.178 1500.18 770.659C1500.18 769.14 1501.33 768 1502.85 768C1504.38 768 1505.52 769.14 1505.52 770.659Z" fill="white"/>
<path d="M1528.26 770.659C1528.26 772.178 1527.12 773.318 1525.59 773.318C1524.07 773.318 1522.92 772.178 1522.92 770.659C1522.92 769.14 1524.07 768 1525.59 768C1527.12 768 1528.26 769.14 1528.26 770.659Z" fill="white"/>
<path d="M1551 770.659C1551 772.178 1549.86 773.318 1548.33 773.318C1546.81 773.318 1545.66 772.178 1545.66 770.659C1545.66 769.14 1546.81 768 1548.33 768C1549.73 768 1551 769.14 1551 770.659Z" fill="white"/>
<path d="M1369.34 789.525C1369.34 791.045 1368.19 792.184 1366.67 792.184C1365.14 792.184 1364 790.918 1364 789.525C1364 788.006 1365.14 786.866 1366.67 786.866C1368.19 786.866 1369.34 788.006 1369.34 789.525Z" fill="white"/>
<path d="M1392.08 789.525C1392.08 791.045 1390.93 792.184 1389.41 792.184C1387.88 792.184 1386.74 791.045 1386.74 789.525C1386.74 788.006 1387.88 786.866 1389.41 786.866C1390.8 786.866 1392.08 788.006 1392.08 789.525Z" fill="white"/>
<path d="M1414.69 789.525C1414.69 791.045 1413.54 792.184 1412.02 792.184C1410.5 792.184 1409.35 791.045 1409.35 789.525C1409.35 788.006 1410.5 786.866 1412.02 786.866C1413.54 786.866 1414.69 788.006 1414.69 789.525Z" fill="white"/>
<path d="M1437.43 789.525C1437.43 791.045 1436.28 792.184 1434.76 792.184C1433.24 792.184 1432.09 791.045 1432.09 789.525C1432.09 788.006 1433.24 786.866 1434.76 786.866C1436.28 786.866 1437.43 788.006 1437.43 789.525Z" fill="white"/>
<path d="M1460.17 789.525C1460.17 791.045 1459.02 792.184 1457.5 792.184C1455.98 792.184 1454.83 791.045 1454.83 789.525C1454.83 788.006 1455.98 786.866 1457.5 786.866C1458.9 786.866 1460.17 788.006 1460.17 789.525Z" fill="white"/>
<path d="M1482.91 789.525C1482.91 791.045 1481.76 792.184 1480.24 792.184C1478.72 792.184 1477.57 791.045 1477.57 789.525C1477.57 788.006 1478.72 786.866 1480.24 786.866C1481.76 786.866 1482.91 788.006 1482.91 789.525Z" fill="white"/>
<path d="M1505.52 789.525C1505.52 791.045 1504.38 792.184 1502.85 792.184C1501.33 792.184 1500.18 791.045 1500.18 789.525C1500.18 788.006 1501.33 786.866 1502.85 786.866C1504.38 786.866 1505.52 788.006 1505.52 789.525Z" fill="white"/>
<path d="M1528.26 789.525C1528.26 791.045 1527.12 792.184 1525.59 792.184C1524.07 792.184 1522.92 791.045 1522.92 789.525C1522.92 788.006 1524.07 786.866 1525.59 786.866C1527.12 786.866 1528.26 788.006 1528.26 789.525Z" fill="white"/>
<path d="M1551 789.525C1551 791.045 1549.86 792.184 1548.33 792.184C1546.81 792.184 1545.66 791.045 1545.66 789.525C1545.66 788.006 1546.81 786.866 1548.33 786.866C1549.73 786.866 1551 788.006 1551 789.525Z" fill="white"/>
<path d="M1369.34 845.87C1369.34 847.389 1368.19 848.529 1366.67 848.529C1365.14 848.529 1364 847.389 1364 845.87C1364 844.35 1365.14 843.211 1366.67 843.211C1368.19 843.211 1369.34 844.477 1369.34 845.87Z" fill="white"/>
<path d="M1392.08 845.87C1392.08 847.389 1390.93 848.529 1389.41 848.529C1387.88 848.529 1386.74 847.389 1386.74 845.87C1386.74 844.35 1387.88 843.211 1389.41 843.211C1390.8 843.211 1392.08 844.477 1392.08 845.87Z" fill="white"/>
<path d="M1414.69 845.87C1414.69 847.389 1413.54 848.529 1412.02 848.529C1410.5 848.529 1409.35 847.389 1409.35 845.87C1409.35 844.35 1410.5 843.211 1412.02 843.211C1413.54 843.211 1414.69 844.477 1414.69 845.87Z" fill="white"/>
<path d="M1437.43 845.87C1437.43 847.389 1436.28 848.529 1434.76 848.529C1433.24 848.529 1432.09 847.389 1432.09 845.87C1432.09 844.35 1433.24 843.211 1434.76 843.211C1436.28 843.211 1437.43 844.477 1437.43 845.87Z" fill="white"/>
<path d="M1460.17 845.87C1460.17 847.389 1459.02 848.529 1457.5 848.529C1455.98 848.529 1454.83 847.389 1454.83 845.87C1454.83 844.35 1455.98 843.211 1457.5 843.211C1458.9 843.211 1460.17 844.477 1460.17 845.87Z" fill="white"/>
<path d="M1482.91 845.87C1482.91 847.389 1481.76 848.529 1480.24 848.529C1478.72 848.529 1477.57 847.389 1477.57 845.87C1477.57 844.35 1478.72 843.211 1480.24 843.211C1481.76 843.211 1482.91 844.477 1482.91 845.87Z" fill="white"/>
<path d="M1505.52 845.87C1505.52 847.389 1504.38 848.529 1502.85 848.529C1501.33 848.529 1500.18 847.389 1500.18 845.87C1500.18 844.35 1501.33 843.211 1502.85 843.211C1504.38 843.211 1505.52 844.477 1505.52 845.87Z" fill="white"/>
<path d="M1528.26 845.87C1528.26 847.389 1527.12 848.529 1525.59 848.529C1524.07 848.529 1522.92 847.389 1522.92 845.87C1522.92 844.35 1524.07 843.211 1525.59 843.211C1527.12 843.211 1528.26 844.477 1528.26 845.87Z" fill="white"/>
<path d="M1551 845.87C1551 847.389 1549.86 848.529 1548.33 848.529C1546.81 848.529 1545.66 847.389 1545.66 845.87C1545.66 844.35 1546.81 843.211 1548.33 843.211C1549.73 843.211 1551 844.477 1551 845.87Z" fill="white"/>
<path d="M1369.34 864.736C1369.34 866.256 1368.19 867.395 1366.67 867.395C1365.14 867.395 1364 866.256 1364 864.736C1364 863.217 1365.14 862.077 1366.67 862.077C1368.19 862.077 1369.34 863.217 1369.34 864.736Z" fill="white"/>
<path d="M1392.08 864.736C1392.08 866.256 1390.93 867.395 1389.41 867.395C1387.88 867.395 1386.74 866.256 1386.74 864.736C1386.74 863.217 1387.88 862.077 1389.41 862.077C1390.8 862.077 1392.08 863.217 1392.08 864.736Z" fill="white"/>
<path d="M1414.69 864.736C1414.69 866.256 1413.54 867.395 1412.02 867.395C1410.5 867.395 1409.35 866.256 1409.35 864.736C1409.35 863.217 1410.5 862.077 1412.02 862.077C1413.54 862.077 1414.69 863.217 1414.69 864.736Z" fill="white"/>
<path d="M1434.76 867.395C1436.23 867.395 1437.43 866.205 1437.43 864.736C1437.43 863.268 1436.23 862.077 1434.76 862.077C1433.29 862.077 1432.09 863.268 1432.09 864.736C1432.09 866.205 1433.29 867.395 1434.76 867.395Z" fill="white"/>
<path d="M1460.17 864.736C1460.17 866.256 1459.02 867.395 1457.5 867.395C1455.98 867.395 1454.83 866.256 1454.83 864.736C1454.83 863.217 1455.98 862.077 1457.5 862.077C1458.9 862.077 1460.17 863.217 1460.17 864.736Z" fill="white"/>
<path d="M1482.91 864.736C1482.91 866.256 1481.76 867.395 1480.24 867.395C1478.72 867.395 1477.57 866.256 1477.57 864.736C1477.57 863.217 1478.72 862.077 1480.24 862.077C1481.76 862.077 1482.91 863.217 1482.91 864.736Z" fill="white"/>
<path d="M1505.52 864.736C1505.52 866.256 1504.38 867.395 1502.85 867.395C1501.33 867.395 1500.18 866.256 1500.18 864.736C1500.18 863.217 1501.33 862.077 1502.85 862.077C1504.38 862.077 1505.52 863.217 1505.52 864.736Z" fill="white"/>
<path d="M1525.59 867.395C1527.07 867.395 1528.26 866.205 1528.26 864.736C1528.26 863.268 1527.07 862.077 1525.59 862.077C1524.12 862.077 1522.92 863.268 1522.92 864.736C1522.92 866.205 1524.12 867.395 1525.59 867.395Z" fill="white"/>
<path d="M1551 864.736C1551 866.256 1549.86 867.395 1548.33 867.395C1546.81 867.395 1545.66 866.256 1545.66 864.736C1545.66 863.217 1546.81 862.077 1548.33 862.077C1549.73 862.077 1551 863.217 1551 864.736Z" fill="white"/>
<path d="M1369.34 883.601C1369.34 885.121 1368.19 886.26 1366.67 886.26C1365.14 886.26 1364 885.121 1364 883.601C1364 882.082 1365.14 880.942 1366.67 880.942C1368.19 880.942 1369.34 882.082 1369.34 883.601Z" fill="white"/>
<path d="M1392.08 883.601C1392.08 885.121 1390.93 886.26 1389.41 886.26C1387.88 886.26 1386.74 885.121 1386.74 883.601C1386.74 882.082 1387.88 880.942 1389.41 880.942C1390.8 880.942 1392.08 882.082 1392.08 883.601Z" fill="white"/>
<path d="M1414.69 883.601C1414.69 885.121 1413.54 886.26 1412.02 886.26C1410.5 886.26 1409.35 885.121 1409.35 883.601C1409.35 882.082 1410.5 880.942 1412.02 880.942C1413.54 880.942 1414.69 882.082 1414.69 883.601Z" fill="white"/>
<path d="M1437.43 883.601C1437.43 885.121 1436.28 886.26 1434.76 886.26C1433.24 886.26 1432.09 885.121 1432.09 883.601C1432.09 882.082 1433.24 880.942 1434.76 880.942C1436.28 880.942 1437.43 882.082 1437.43 883.601Z" fill="white"/>
<path d="M1460.17 883.601C1460.17 885.121 1459.02 886.26 1457.5 886.26C1455.98 886.26 1454.83 885.121 1454.83 883.601C1454.83 882.082 1455.98 880.942 1457.5 880.942C1458.9 880.942 1460.17 882.082 1460.17 883.601Z" fill="white"/>
<path d="M1482.91 883.601C1482.91 885.121 1481.76 886.26 1480.24 886.26C1478.72 886.26 1477.57 885.121 1477.57 883.601C1477.57 882.082 1478.72 880.942 1480.24 880.942C1481.76 880.942 1482.91 882.082 1482.91 883.601Z" fill="white"/>
<path d="M1505.52 883.601C1505.52 885.121 1504.38 886.26 1502.85 886.26C1501.33 886.26 1500.18 885.121 1500.18 883.601C1500.18 882.082 1501.33 880.942 1502.85 880.942C1504.38 880.942 1505.52 882.082 1505.52 883.601Z" fill="white"/>
<path d="M1528.26 883.601C1528.26 885.121 1527.12 886.26 1525.59 886.26C1524.07 886.26 1522.92 885.121 1522.92 883.601C1522.92 882.082 1524.07 880.942 1525.59 880.942C1527.12 880.942 1528.26 882.082 1528.26 883.601Z" fill="white"/>
<path d="M1551 883.601C1551 885.121 1549.86 886.26 1548.33 886.26C1546.81 886.26 1545.66 885.121 1545.66 883.601C1545.66 882.082 1546.81 880.942 1548.33 880.942C1549.73 880.942 1551 882.082 1551 883.601Z" fill="white"/>
<path d="M1369.34 902.341C1369.34 903.86 1368.19 905 1366.67 905C1365.14 905 1364 903.86 1364 902.341C1364 900.821 1365.14 899.682 1366.67 899.682C1368.19 899.682 1369.34 900.948 1369.34 902.341Z" fill="white"/>
<path d="M1392.08 902.341C1392.08 903.86 1390.93 905 1389.41 905C1387.88 905 1386.74 903.86 1386.74 902.341C1386.74 900.821 1387.88 899.682 1389.41 899.682C1390.8 899.682 1392.08 900.948 1392.08 902.341Z" fill="white"/>
<path d="M1414.69 902.341C1414.69 903.86 1413.54 905 1412.02 905C1410.5 905 1409.35 903.86 1409.35 902.341C1409.35 900.821 1410.5 899.682 1412.02 899.682C1413.54 899.682 1414.69 900.948 1414.69 902.341Z" fill="white"/>
<path d="M1437.43 902.341C1437.43 903.86 1436.28 905 1434.76 905C1433.24 905 1432.09 903.86 1432.09 902.341C1432.09 900.821 1433.24 899.682 1434.76 899.682C1436.28 899.682 1437.43 900.948 1437.43 902.341Z" fill="white"/>
<path d="M1460.17 902.341C1460.17 903.86 1459.02 905 1457.5 905C1455.98 905 1454.83 903.86 1454.83 902.341C1454.83 900.821 1455.98 899.682 1457.5 899.682C1458.9 899.682 1460.17 900.948 1460.17 902.341Z" fill="white"/>
<path d="M1482.91 902.341C1482.91 903.86 1481.76 905 1480.24 905C1478.72 905 1477.57 903.86 1477.57 902.341C1477.57 900.821 1478.72 899.682 1480.24 899.682C1481.76 899.682 1482.91 900.948 1482.91 902.341Z" fill="white"/>
<path d="M1505.52 902.341C1505.52 903.86 1504.38 905 1502.85 905C1501.33 905 1500.18 903.86 1500.18 902.341C1500.18 900.821 1501.33 899.682 1502.85 899.682C1504.38 899.682 1505.52 900.948 1505.52 902.341Z" fill="white"/>
<path d="M1528.26 902.341C1528.26 903.86 1527.12 905 1525.59 905C1524.07 905 1522.92 903.86 1522.92 902.341C1522.92 900.821 1524.07 899.682 1525.59 899.682C1527.12 899.682 1528.26 900.948 1528.26 902.341Z" fill="white"/>
<path d="M1551 902.341C1551 903.86 1549.86 905 1548.33 905C1546.81 905 1545.66 903.86 1545.66 902.341C1545.66 900.821 1546.81 899.682 1548.33 899.682C1549.73 899.682 1551 900.948 1551 902.341Z" fill="white"/>
</g>
<g opacity="0.3">
<path d="M1362.81 94.2212L1372.46 103.88L1346.78 129.563L1321.1 103.88L1330.68 94.2943L1346.71 110.319L1362.81 94.2212Z" fill="white"/>
<path d="M1362.81 59.5386L1372.39 69.1241L1346.71 94.8075L1321.1 69.1973L1330.76 59.5386L1346.78 75.5632L1362.81 59.5386Z" fill="white"/>
<path d="M1362.73 24.7816L1372.39 34.4404L1346.78 60.0506L1321.1 34.3672L1330.68 24.7816L1346.71 40.8063L1362.73 24.7816Z" fill="white"/>
<path d="M1362.81 -9.97609L1372.46 -0.317377L1346.78 25.366L1321.1 -0.317383L1330.76 -9.9761L1346.78 6.04859L1362.81 -9.97609Z" fill="white"/>
</g>
<path opacity="0.3" d="M395 827.553C381.071 841.482 358.377 841.482 344.447 827.553C330.518 813.623 330.518 790.929 344.447 777L395 827.553Z" fill="white"/>
<g opacity="0.3">
<path d="M449.486 548.89C460.205 548.89 468.937 540.165 468.937 529.453C468.937 518.742 460.205 510.017 449.486 510.017L449.486 548.89Z" fill="white"/>
<path d="M419.141 548.89C429.861 548.89 438.592 540.165 438.592 529.453C438.592 518.742 429.861 510.017 419.141 510.017L419.141 548.89Z" fill="white"/>
<path d="M388.796 548.89C399.515 548.89 408.247 540.165 408.247 529.453C408.247 518.742 399.515 510.017 388.796 510.017V548.89Z" fill="white"/>
</g>
<defs>
<clipPath id="clip0_2616_325">
<rect width="187" height="137" fill="white" transform="translate(1364 768)"/>
</clipPath>
</defs>
</svg>
